<svg width="78" height="29" viewBox="0 0 78 29" fill="none" xmlns="http://www.w3.org/2000/svg">
<path d="M19.3374 14.9194C19.0421 14.959 18.7837 15.023 18.5622 15.1084C18.3407 15.1938 18.1623 15.3066 18.03 15.4469C17.8947 15.5871 17.8301 15.764 17.8301 15.9744C17.8301 16.2793 17.9285 16.4775 18.1223 16.5628C18.3161 16.6482 18.5284 16.6909 18.756 16.6909C19.199 16.6909 19.5774 16.5506 19.8911 16.2732C20.2049 15.9927 20.4049 15.6359 20.4848 15.1968L20.5464 14.8584H20.2849C19.9496 14.8584 19.6358 14.8797 19.3405 14.9194H19.3374Z" fill="black"/>
<path d="M60.9948 23.6305L61.7577 20.1027C61.9176 20.1698 62.0868 20.2247 62.2591 20.2735C62.4344 20.3192 62.6221 20.3436 62.8221 20.3436C63.3173 20.3436 63.7049 20.2399 63.9787 20.0356C64.2525 19.8283 64.477 19.5661 64.6524 19.249L64.7724 19.0294L62.2376 8.68079H67.2272L67.8701 14.4222H67.9501L70.4233 8.68079H75.2499L69.1159 19.807C68.753 20.4717 68.3961 21.0601 68.0393 21.5724C67.6824 22.0846 67.2856 22.5146 66.8426 22.8683C66.7196 22.9658 66.5935 23.0543 66.4612 23.1396L77.9938 22.0907L75.9543 0L15.0857 5.54327L13.5445 14.0838C13.4368 14.7089 13.2799 15.3431 13.0708 15.9864C12.8616 16.6328 12.554 17.2183 12.1448 17.7519C11.7357 18.2824 11.185 18.7184 10.496 19.0569C9.80383 19.3953 8.92404 19.5661 7.85045 19.5661C6.52153 19.5661 5.42333 19.2551 4.55277 18.63C3.68221 18.0049 3.07927 17.1268 2.74397 15.9986L7.00757 14.5046C7.04756 14.7302 7.14292 14.9314 7.29058 15.1022C7.43824 15.276 7.64434 15.3614 7.91505 15.3614C8.22267 15.3614 8.44415 15.2486 8.57951 15.0229C8.71486 14.7973 8.8133 14.5107 8.88097 14.1661L10.3452 5.97929L0 6.91536L2.04567 29L60.9979 23.6305H60.9917H60.9948ZM23.9143 18.4471C23.8959 18.752 23.8836 18.9928 23.8836 19.1636H20.023C20.023 19.0721 20.026 18.9227 20.0322 18.7154C20.0383 18.5111 20.0476 18.3403 20.0629 18.2062H20.023C19.6354 18.6453 19.1924 18.9593 18.694 19.1545C18.1988 19.3465 17.6481 19.4441 17.0452 19.4441C16.6699 19.4441 16.2946 19.3923 15.9193 19.2856C15.544 19.1788 15.2056 19.0172 14.9042 18.7977C14.6027 18.5782 14.3566 18.2916 14.169 17.9409C13.9813 17.5903 13.8859 17.1664 13.8859 16.6755C13.8859 15.8645 14.0705 15.1967 14.4397 14.6723C14.8088 14.1478 15.3041 13.7332 15.9285 13.4252C16.553 13.1203 17.2728 12.9038 18.0911 12.7788C18.9094 12.6538 19.7676 12.5897 20.6659 12.5897C20.6782 12.5379 20.6874 12.4922 20.6874 12.4617V12.3733C20.6874 12.108 20.5705 11.9037 20.3367 11.7634C20.1029 11.6232 19.7953 11.553 19.42 11.553C18.9894 11.553 18.5741 11.6354 18.1742 11.8031C17.7712 11.9708 17.402 12.1934 17.0667 12.4708L15.0949 10.2389C15.4179 9.93397 15.7809 9.66565 16.19 9.43087C16.5991 9.19914 17.0175 9.00095 17.4482 8.84239C17.8758 8.68384 18.3126 8.56188 18.7556 8.4826C19.1985 8.40332 19.62 8.36368 20.023 8.36368C21.6318 8.36368 22.8407 8.68689 23.6529 9.33025C24.465 9.97361 24.871 10.8822 24.871 12.05C24.871 12.541 24.8187 13.0928 24.7111 13.7057L24.0282 17.5537C23.9759 17.8464 23.9389 18.1452 23.9174 18.4501L23.9143 18.4471ZM37.5234 19.1636L38.5078 13.602C38.5355 13.4953 38.5509 13.3795 38.557 13.2544C38.5632 13.1294 38.5663 13.0258 38.5663 12.9465C38.5663 12.3367 38.2925 12.0287 37.7418 12.0287C37.4465 12.0287 37.1943 12.172 36.9882 12.4586C36.779 12.7452 36.6283 13.1325 36.536 13.6264L35.5516 19.1697H31.045L32.0293 13.6478C32.057 13.5411 32.0724 13.4313 32.0786 13.3185C32.0847 13.2057 32.0878 13.1172 32.0878 13.0502C32.0878 12.7452 32.017 12.4983 31.8755 12.3123C31.734 12.1263 31.531 12.0318 31.2634 12.0318C30.9957 12.0318 30.7743 12.1598 30.5589 12.4098C30.3436 12.6629 30.1836 13.0684 30.076 13.6264L29.0916 19.1697H24.5849L26.0738 10.7359C26.1261 10.4828 26.1846 10.1566 26.2461 9.76017C26.3076 9.36074 26.3507 9.00399 26.3784 8.68384H30.722C30.7097 8.88203 30.6881 9.11376 30.6604 9.37294C30.6327 9.63211 30.6081 9.85469 30.5805 10.0407H30.6604C30.9557 9.64126 31.3649 9.27536 31.8878 8.94301C32.4108 8.61066 33.0353 8.44601 33.7582 8.44601C34.5364 8.44601 35.1548 8.58627 35.6193 8.86374C36.0838 9.1412 36.4283 9.52234 36.6559 10.0011C37.0035 9.57723 37.4311 9.21133 37.9326 8.90337C38.434 8.59846 39.0677 8.44601 39.8336 8.44601C40.4489 8.44601 40.978 8.54663 41.4117 8.74482C41.8486 8.94301 42.2023 9.20219 42.4792 9.52234C42.753 9.8425 42.956 10.1992 43.0821 10.5987C43.2082 10.9981 43.2728 11.3975 43.2728 11.7939C43.2728 11.9799 43.2636 12.1568 43.2421 12.3214C43.2205 12.4891 43.199 12.6507 43.1713 12.8093L42.0454 19.1697H37.5203L37.5234 19.1636ZM56.0483 19.1636L57.0326 13.602C57.0603 13.4953 57.0757 13.3795 57.0819 13.2544C57.088 13.1294 57.0911 13.0258 57.0911 12.9465C57.0911 12.3367 56.8173 12.0287 56.2667 12.0287C55.9714 12.0287 55.7191 12.172 55.513 12.4586C55.3038 12.7452 55.1531 13.1325 55.0608 13.6264L54.0764 19.1697H49.5698L50.5542 13.6478C50.5819 13.5411 50.5973 13.4313 50.6034 13.3185C50.6096 13.2057 50.6126 13.1172 50.6126 13.0502C50.6126 12.7452 50.5419 12.4983 50.4004 12.3123C50.2589 12.1263 50.0558 12.0318 49.7882 12.0318C49.5206 12.0318 49.2991 12.1598 49.0838 12.4098C48.8684 12.6629 48.7085 13.0684 48.6008 13.6264L47.6164 19.1697H43.1098L44.5987 10.7359C44.651 10.4828 44.7094 10.1566 44.7709 9.76017C44.8325 9.36074 44.8755 9.00399 44.9032 8.68384H49.2468C49.2345 8.88203 49.213 9.11376 49.1853 9.37294C49.1576 9.63211 49.133 9.85469 49.1053 10.0407H49.1853C49.4806 9.64126 49.8897 9.27536 50.4127 8.94301C50.9356 8.61066 51.5601 8.44601 52.283 8.44601C53.0613 8.44601 53.6796 8.58627 54.1441 8.86374C54.6086 9.1412 54.9531 9.52234 55.1808 10.0011C55.5284 9.57723 55.956 9.21133 56.4574 8.90337C56.9588 8.59846 57.5925 8.44601 58.3585 8.44601C58.9737 8.44601 59.5028 8.54663 59.9366 8.74482C60.3734 8.94301 60.7272 9.20219 61.004 9.52234C61.2778 9.8425 61.4808 10.1992 61.607 10.5987C61.7331 10.9981 61.7977 11.3975 61.7977 11.7939C61.7977 11.9799 61.7884 12.1568 61.7669 12.3214C61.7454 12.4891 61.7239 12.6507 61.6962 12.8093L60.5703 19.1697H56.0452L56.0483 19.1636Z" fill="black"/>
</svg>
