<?xml version="1.0" encoding="UTF-8"?>
<svg width="34px" height="31px" viewBox="0 0 34 31" version="1.1" xmlns="http://www.w3.org/2000/svg" xmlns:xlink="http://www.w3.org/1999/xlink">
    <!-- Generator: Sketch 56.2 (81672) - https://sketch.com -->
    <title>Color</title>
    <desc>Created with Sketch.</desc>
    <g id="Page-1" stroke="none" stroke-width="1" fill="none" fill-rule="evenodd">
        <g id="Color">
            <g id="Group" transform="translate(7.525692, 10.213439)" fill="#115EFF">
                <rect id="Rectangle" x="6.45059289" y="0" width="20.0237154" height="16.1264822" rx="7.99604743"></rect>
                <rect id="Rectangle" x="0" y="0" width="20.0237154" height="16.1264822" rx="7.99604743"></rect>
                <rect id="Rectangle" x="9.13833992" y="0" width="9.81027668" height="16.1264822"></rect>
                <path d="M0.403162055,8.06324111 L7.39130435,8.06324111 C7.6139646,8.06324111 7.7944664,8.24374291 7.7944664,8.46640316 L7.7944664,16.1264822 C6.58085148,16.0972407 5.46015149,16.4024567 4.4323664,17.0421303 C2.89068878,18.0016407 2.1218099,18.9872384 1.1704997,19.7871158 C0.853589159,20.0535794 0.570084815,19.9580128 0.329756661,19.8779485 C0.169537892,19.8245722 0.0596190049,19.6579555 0,19.3780983 L0,8.46640316 C-2.72680168e-17,8.24374291 0.1805018,8.06324111 0.403162055,8.06324111 Z" id="Rectangle"></path>
            </g>
            <g id="Group" transform="translate(3.762846, 5.509881)" fill="#00E200">
                <rect id="Rectangle" x="6.45059289" y="0" width="20.0237154" height="16.1264822" rx="7.99604743"></rect>
                <rect id="Rectangle" x="0" y="0" width="20.0237154" height="16.1264822" rx="7.99604743"></rect>
                <rect id="Rectangle" x="9.13833992" y="0" width="9.81027668" height="16.1264822"></rect>
                <path d="M0.403162055,8.06324111 L7.39130435,8.06324111 C7.6139646,8.06324111 7.7944664,8.24374291 7.7944664,8.46640316 L7.7944664,16.1264822 C6.58085148,16.0972407 5.46015149,16.4024567 4.4323664,17.0421303 C2.89068878,18.0016407 2.1218099,18.9872384 1.1704997,19.7871158 C0.853589159,20.0535794 0.570084815,19.9580128 0.329756661,19.8779485 C0.169537892,19.8245722 0.0596190049,19.6579555 0,19.3780983 L0,8.46640316 C-2.72680168e-17,8.24374291 0.1805018,8.06324111 0.403162055,8.06324111 Z" id="Rectangle"></path>
            </g>
            <g id="Group" fill="#FFEB00">
                <rect id="Rectangle" x="6.45059289" y="0" width="20.0237154" height="16.1264822" rx="7.99604743"></rect>
                <rect id="Rectangle" x="0" y="0" width="20.0237154" height="16.1264822" rx="7.99604743"></rect>
                <rect id="Rectangle" x="9.13833992" y="0" width="9.81027668" height="16.1264822"></rect>
                <path d="M0.403162055,8.06324111 L7.39130435,8.06324111 C7.6139646,8.06324111 7.7944664,8.24374291 7.7944664,8.46640316 L7.7944664,16.1264822 C6.58085148,16.0972407 5.46015149,16.4024567 4.4323664,17.0421303 C2.89068878,18.0016407 2.1218099,18.9872384 1.1704997,19.7871158 C0.853589159,20.0535794 0.570084815,19.9580128 0.329756661,19.8779485 C0.169537892,19.8245722 0.0596190049,19.6579555 0,19.3780983 L0,8.46640316 C-2.72680168e-17,8.24374291 0.1805018,8.06324111 0.403162055,8.06324111 Z" id="Rectangle"></path>
            </g>
        </g>
    </g>
</svg>